<svg id="Capa_1" data-name="Capa 1" xmlns="http://www.w3.org/2000/svg" viewBox="0 0 21.15 28.16"><defs><style>.cls-1{fill:#bedff7;}</style></defs><title>pass</title><path class="cls-1" d="M304.59,401l.42,3.51h1.57l.43-3.59a1.17,1.17,0,0,0-1.22-1.1A1.19,1.19,0,0,0,304.59,401Zm-.1,4.7a.59.59,0,0,1-.58-.52l-.49-4.11a2.38,2.38,0,1,1,4.76-.08l-.5,4.19a.58.58,0,0,1-.58.52Zm-3.37-17.8v4.72h9.36v-4.72a4.69,4.69,0,0,0-9.36,0Zm-4.73,7.8,1.1,11.61a1.9,1.9,0,0,0,1.91,2h12.79a1.92,1.92,0,0,0,1.91-1.92l1.11-11.71a1.87,1.87,0,0,0-1.91-1.83h-15A1.88,1.88,0,0,0,296.39,395.67Zm3,14.76a3.09,3.09,0,0,1-3.08-3.09l-1.1-11.61a3.09,3.09,0,0,1,3.08-3.14H300v-4.72a5.86,5.86,0,0,1,11.7,0v4.72h1.65a3,3,0,0,1,3.07,3.07l-1.1,11.72a3.08,3.08,0,0,1-3.08,3.05Z" transform="translate(-295.22 -382.27)"/></svg>